<svg width="32" height="40" viewBox="0 0 32 40" fill="none" xmlns="http://www.w3.org/2000/svg">
<path fill-rule="evenodd" clip-rule="evenodd" d="M15.9442 9.2063C17.0064 9.28624 18.0669 9.04638 19.1833 8.48006L19.1521 8.47838C20.1552 7.96202 21.0416 7.24578 21.7558 6.37962C22.465 5.4968 23.0232 4.51404 23.3976 3.44798C23.808 2.24868 23.9392 1.13268 23.808 0C22.823 0.04998 21.7887 0.3498 20.7051 0.91614C19.6873 1.4325 18.7843 2.14874 18.0292 3.0149C17.3068 3.84776 16.7815 4.78054 16.3875 5.81328C15.9442 7.02424 15.78 8.13026 15.9442 9.2063ZM5.88875 37.3132C6.46499 38.0578 7.15451 38.7024 7.93104 39.2288L7.90969 39.2504C8.70098 39.7502 9.49557 40 10.3492 40C10.8976 39.965 11.4426 39.8684 11.9745 39.7086C12.2309 39.6272 12.6671 39.4428 13.3289 39.163L13.3782 39.1422C13.8658 38.9272 14.3583 38.7474 14.8672 38.6008C15.4746 38.4426 16.1149 38.3592 16.7716 38.3592C17.4184 38.3576 18.0586 38.4376 18.6825 38.6042C19.1898 38.7574 19.6872 38.9472 20.1682 39.1704C20.6278 39.372 21.0974 39.5502 21.5734 39.7086C22.1218 39.87 22.6964 39.945 23.271 39.92C24.1198 39.92 24.9489 39.6686 25.6548 39.1938C26.295 38.7658 26.9321 38.166 27.592 37.3666C28.0154 36.8502 28.5737 36.0672 29.2829 35.018C30.0874 33.802 30.7654 32.5144 31.3351 31.1702C31.5862 30.5706 31.8029 29.9626 32 29.3378C31.5764 29.1796 31.1299 28.9382 30.621 28.5884C29.5867 27.8854 28.7379 27.0292 28.1026 26.0298C27.1996 24.6556 26.7482 23.0698 26.7235 21.266C26.7137 19.8001 27.0748 18.351 27.7807 17.0684C28.3226 16.1273 29.0006 15.2778 29.8 14.5615C30.1694 14.2217 30.5634 13.9119 30.9904 13.6454C29.9823 12.1296 28.6312 11.0636 26.9567 10.3806C26.0044 10.0142 24.9374 9.7643 23.7717 9.68102C23.1626 9.63106 22.5273 9.66436 21.887 9.7643C21.3584 9.8476 20.7708 10.0142 20.1632 10.1974C20.0158 10.2528 19.8542 10.3151 19.6769 10.3833C19.3749 10.4997 19.0277 10.6334 18.6283 10.7804C18.051 11.0357 17.6272 11.1827 17.3749 11.2702C17.3494 11.279 17.324 11.2879 17.2985 11.2967C16.8799 11.43 16.5023 11.5133 16.2397 11.5133C15.8949 11.5133 15.4516 11.43 14.9263 11.2301C14.8442 11.2051 14.6801 11.1385 14.4235 11.0344C14.167 10.9303 13.8182 10.7887 13.3667 10.6138C12.6608 10.3473 12.0862 10.1308 11.6101 9.9975C10.9534 9.83094 10.3296 9.74766 9.75496 9.74766C8.11325 9.78096 6.48797 10.264 5.09253 11.1468C3.64785 12.028 2.44941 13.2823 1.64497 14.7814C0.55818 16.6969 0 18.9789 0 21.594C0 23.9378 0.398928 26.333 1.21977 28.8348C1.90109 30.9852 2.88445 33.0258 4.14199 34.8914C4.67719 35.7308 5.25999 36.542 5.88875 37.3132Z" fill="white"/>
</svg>
