<svg width="32" height="36" viewBox="0 0 32 36" fill="none" xmlns="http://www.w3.org/2000/svg">
<path d="M0.0885629 0C0.0442814 0.1395 0 0.277506 0 0.462006V35.3056C0 35.631 0.090033 35.8155 0.271587 36L17.1207 17.8605L0.0885629 0ZM18.2572 19.062L22.6129 23.6295L16.3944 27.2295C16.3944 27.2295 8.49022 31.7956 4.13146 34.3381L18.2572 19.062ZM19.4395 17.8155L24.1127 22.7534C24.8447 22.3394 30.5645 19.0156 31.3807 18.5535C32.2427 18.0464 32.1556 17.3535 31.4235 16.9845C30.746 16.602 25.0263 13.272 24.1614 12.732L19.4335 17.82L19.4395 17.8155ZM18.2542 16.6155L22.6588 11.862L16.3723 8.21551C16.3723 8.21551 6.1241 2.25751 2.71445 0.268506L18.2572 16.6155H18.2542Z" fill="white"/>
</svg>
