<svg width="40" height="40" viewBox="0 0 40 40" fill="none" xmlns="http://www.w3.org/2000/svg">
<path d="M26 15.333C26.828 15.954 27.5 16.7592 27.9628 17.6849C28.4257 18.6106 28.6667 19.6314 28.6667 20.6663C28.6667 21.7013 28.4257 22.7221 27.9628 23.6478C27.5 24.5735 26.828 25.3787 26 25.9997" stroke="#050036" stroke-width="2.66667" stroke-linecap="round" stroke-linejoin="round"/>
<path d="M30 11C31.2491 12.1249 32.2566 13.5468 32.9487 15.1618C33.6408 16.7767 34 18.5437 34 20.3333C34 22.123 33.6408 23.89 32.9487 25.5049C32.2566 27.1198 31.2491 28.5418 30 29.6667" stroke="#050036" stroke-width="2.66667" stroke-linecap="round" stroke-linejoin="round"/>
<path d="M9.82423 26.0501H5.49699C4.92316 26.0501 4.37284 25.8376 3.96708 25.4594C3.56133 25.0812 3.33337 24.5682 3.33337 24.0334V15.9666C3.33337 15.4318 3.56133 14.9188 3.96708 14.5406C4.37284 14.1624 4.92316 13.9499 5.49699 13.9499H9.82423L17.3969 4.87486C17.586 4.53249 17.9003 4.26445 18.2829 4.11919C18.6655 3.97393 19.0912 3.96102 19.4832 4.08279C19.8751 4.20457 20.2074 4.45299 20.42 4.78318C20.6326 5.11337 20.7114 5.50355 20.6423 5.8832V34.1168C20.7114 34.4965 20.6326 34.8866 20.42 35.2168C20.2074 35.547 19.8751 35.7954 19.4832 35.9172C19.0912 36.039 18.6655 36.0261 18.2829 35.8808C17.9003 35.7355 17.586 35.4675 17.3969 35.1251L9.82423 26.0501Z" stroke="#050036" stroke-width="2.66667" stroke-linecap="round" stroke-linejoin="round"/>
</svg>
