<svg width="40" height="40" viewBox="0 0 40 40" fill="none" xmlns="http://www.w3.org/2000/svg">
<path d="M9.82423 26.0501H5.49699C4.92316 26.0501 4.37284 25.8376 3.96708 25.4594C3.56133 25.0812 3.33337 24.5682 3.33337 24.0334V15.9666C3.33337 15.4318 3.56133 14.9188 3.96708 14.5406C4.37284 14.1624 4.92316 13.9499 5.49699 13.9499H9.82423L17.3969 4.87486C17.586 4.53249 17.9003 4.26445 18.2829 4.11919C18.6655 3.97393 19.0912 3.96102 19.4832 4.08279C19.8751 4.20457 20.2074 4.45299 20.42 4.78318C20.6326 5.11337 20.7114 5.50355 20.6423 5.8832V34.1168C20.7114 34.4965 20.6326 34.8866 20.42 35.2168C20.2074 35.547 19.8751 35.7954 19.4832 35.9172C19.0912 36.039 18.6655 36.0261 18.2829 35.8808C17.9003 35.7355 17.586 35.4675 17.3969 35.1251L9.82423 26.0501Z" stroke="#050036" stroke-width="2.66667" stroke-linecap="round" stroke-linejoin="round"/>
<path d="M24.3905 15.2761C23.8698 14.7554 23.8698 13.9112 24.3905 13.3905C24.9112 12.8698 25.7554 12.8698 26.2761 13.3905L30.6667 17.781L35.0572 13.3905C35.5779 12.8698 36.4221 12.8698 36.9428 13.3905C37.4635 13.9112 37.4635 14.7554 36.9428 15.2761L32.5523 19.6667L36.9428 24.0572C37.4635 24.5779 37.4635 25.4221 36.9428 25.9428C36.4221 26.4635 35.5779 26.4635 35.0572 25.9428L30.6667 21.5523L26.2761 25.9428C25.7554 26.4635 24.9112 26.4635 24.3905 25.9428C23.8698 25.4221 23.8698 24.5779 24.3905 24.0572L28.781 19.6667L24.3905 15.2761Z" fill="#050036"/>
</svg>
