<?xml version="1.0" encoding="utf-8"?>
<svg xmlns="http://www.w3.org/2000/svg" xmlns:xlink="http://www.w3.org/1999/xlink" xml:space="preserve" width="792" height="792" viewBox="0 0 792 792"><rect width="792" height="792" fill="#ffffff" x="0" y="0"/><g fill="#000000">
<g transform="translate(312,48) scale(4.12)"><circle cx="3" cy="3" r="3"/></g>
<g transform="translate(336,48) scale(4.12)"><circle cx="3" cy="3" r="3"/></g>
<g transform="translate(384,48) scale(4.12)"><circle cx="3" cy="3" r="3"/></g>
<g transform="translate(408,48) scale(4.12)"><circle cx="3" cy="3" r="3"/></g>
<g transform="translate(456,48) scale(4.12)"><circle cx="3" cy="3" r="3"/></g>
<g transform="translate(480,48) scale(4.12)"><circle cx="3" cy="3" r="3"/></g>
<g transform="translate(504,48) scale(4.12)"><circle cx="3" cy="3" r="3"/></g>
<g transform="translate(264,72) scale(4.12)"><circle cx="3" cy="3" r="3"/></g>
<g transform="translate(288,72) scale(4.12)"><circle cx="3" cy="3" r="3"/></g>
<g transform="translate(360,72) scale(4.12)"><circle cx="3" cy="3" r="3"/></g>
<g transform="translate(384,72) scale(4.12)"><circle cx="3" cy="3" r="3"/></g>
<g transform="translate(456,72) scale(4.12)"><circle cx="3" cy="3" r="3"/></g>
<g transform="translate(528,72) scale(4.12)"><circle cx="3" cy="3" r="3"/></g>
<g transform="translate(240,96) scale(4.12)"><circle cx="3" cy="3" r="3"/></g>
<g transform="translate(360,96) scale(4.12)"><circle cx="3" cy="3" r="3"/></g>
<g transform="translate(408,96) scale(4.12)"><circle cx="3" cy="3" r="3"/></g>
<g transform="translate(528,96) scale(4.12)"><circle cx="3" cy="3" r="3"/></g>
<g transform="translate(240,120) scale(4.12)"><circle cx="3" cy="3" r="3"/></g>
<g transform="translate(336,120) scale(4.12)"><circle cx="3" cy="3" r="3"/></g>
<g transform="translate(456,120) scale(4.12)"><circle cx="3" cy="3" r="3"/></g>
<g transform="translate(504,120) scale(4.12)"><circle cx="3" cy="3" r="3"/></g>
<g transform="translate(240,144) scale(4.12)"><circle cx="3" cy="3" r="3"/></g>
<g transform="translate(288,144) scale(4.12)"><circle cx="3" cy="3" r="3"/></g>
<g transform="translate(360,144) scale(4.12)"><circle cx="3" cy="3" r="3"/></g>
<g transform="translate(384,144) scale(4.12)"><circle cx="3" cy="3" r="3"/></g>
<g transform="translate(480,144) scale(4.12)"><circle cx="3" cy="3" r="3"/></g>
<g transform="translate(504,144) scale(4.12)"><circle cx="3" cy="3" r="3"/></g>
<g transform="translate(528,144) scale(4.12)"><circle cx="3" cy="3" r="3"/></g>
<g transform="translate(240,168) scale(4.12)"><circle cx="3" cy="3" r="3"/></g>
<g transform="translate(264,168) scale(4.12)"><circle cx="3" cy="3" r="3"/></g>
<g transform="translate(288,168) scale(4.12)"><circle cx="3" cy="3" r="3"/></g>
<g transform="translate(336,168) scale(4.12)"><circle cx="3" cy="3" r="3"/></g>
<g transform="translate(384,168) scale(4.12)"><circle cx="3" cy="3" r="3"/></g>
<g transform="translate(408,168) scale(4.12)"><circle cx="3" cy="3" r="3"/></g>
<g transform="translate(480,168) scale(4.12)"><circle cx="3" cy="3" r="3"/></g>
<g transform="translate(528,168) scale(4.12)"><circle cx="3" cy="3" r="3"/></g>
<g transform="translate(240,192) scale(4.12)"><circle cx="3" cy="3" r="3"/></g>
<g transform="translate(288,192) scale(4.12)"><circle cx="3" cy="3" r="3"/></g>
<g transform="translate(336,192) scale(4.12)"><circle cx="3" cy="3" r="3"/></g>
<g transform="translate(384,192) scale(4.12)"><circle cx="3" cy="3" r="3"/></g>
<g transform="translate(432,192) scale(4.12)"><circle cx="3" cy="3" r="3"/></g>
<g transform="translate(480,192) scale(4.12)"><circle cx="3" cy="3" r="3"/></g>
<g transform="translate(528,192) scale(4.12)"><circle cx="3" cy="3" r="3"/></g>
<g transform="translate(240,216) scale(4.12)"><circle cx="3" cy="3" r="3"/></g>
<g transform="translate(264,216) scale(4.12)"><circle cx="3" cy="3" r="3"/></g>
<g transform="translate(312,216) scale(4.12)"><circle cx="3" cy="3" r="3"/></g>
<g transform="translate(336,216) scale(4.12)"><circle cx="3" cy="3" r="3"/></g>
<g transform="translate(360,216) scale(4.12)"><circle cx="3" cy="3" r="3"/></g>
<g transform="translate(408,216) scale(4.12)"><circle cx="3" cy="3" r="3"/></g>
<g transform="translate(504,216) scale(4.12)"><circle cx="3" cy="3" r="3"/></g>
<g transform="translate(528,216) scale(4.12)"><circle cx="3" cy="3" r="3"/></g>
<g transform="translate(48,240) scale(4.12)"><circle cx="3" cy="3" r="3"/></g>
<g transform="translate(96,240) scale(4.12)"><circle cx="3" cy="3" r="3"/></g>
<g transform="translate(120,240) scale(4.12)"><circle cx="3" cy="3" r="3"/></g>
<g transform="translate(144,240) scale(4.12)"><circle cx="3" cy="3" r="3"/></g>
<g transform="translate(168,240) scale(4.12)"><circle cx="3" cy="3" r="3"/></g>
<g transform="translate(192,240) scale(4.12)"><circle cx="3" cy="3" r="3"/></g>
<g transform="translate(336,240) scale(4.12)"><circle cx="3" cy="3" r="3"/></g>
<g transform="translate(384,240) scale(4.12)"><circle cx="3" cy="3" r="3"/></g>
<g transform="translate(408,240) scale(4.12)"><circle cx="3" cy="3" r="3"/></g>
<g transform="translate(432,240) scale(4.12)"><circle cx="3" cy="3" r="3"/></g>
<g transform="translate(456,240) scale(4.12)"><circle cx="3" cy="3" r="3"/></g>
<g transform="translate(504,240) scale(4.12)"><circle cx="3" cy="3" r="3"/></g>
<g transform="translate(576,240) scale(4.12)"><circle cx="3" cy="3" r="3"/></g>
<g transform="translate(600,240) scale(4.12)"><circle cx="3" cy="3" r="3"/></g>
<g transform="translate(624,240) scale(4.12)"><circle cx="3" cy="3" r="3"/></g>
<g transform="translate(648,240) scale(4.12)"><circle cx="3" cy="3" r="3"/></g>
<g transform="translate(672,240) scale(4.12)"><circle cx="3" cy="3" r="3"/></g>
<g transform="translate(96,264) scale(4.12)"><circle cx="3" cy="3" r="3"/></g>
<g transform="translate(120,264) scale(4.12)"><circle cx="3" cy="3" r="3"/></g>
<g transform="translate(216,264) scale(4.12)"><circle cx="3" cy="3" r="3"/></g>
<g transform="translate(264,264) scale(4.12)"><circle cx="3" cy="3" r="3"/></g>
<g transform="translate(384,264) scale(4.12)"><circle cx="3" cy="3" r="3"/></g>
<g transform="translate(408,264) scale(4.12)"><circle cx="3" cy="3" r="3"/></g>
<g transform="translate(504,264) scale(4.12)"><circle cx="3" cy="3" r="3"/></g>
<g transform="translate(528,264) scale(4.12)"><circle cx="3" cy="3" r="3"/></g>
<g transform="translate(552,264) scale(4.12)"><circle cx="3" cy="3" r="3"/></g>
<g transform="translate(576,264) scale(4.12)"><circle cx="3" cy="3" r="3"/></g>
<g transform="translate(624,264) scale(4.12)"><circle cx="3" cy="3" r="3"/></g>
<g transform="translate(720,264) scale(4.12)"><circle cx="3" cy="3" r="3"/></g>
<g transform="translate(48,288) scale(4.12)"><circle cx="3" cy="3" r="3"/></g>
<g transform="translate(168,288) scale(4.12)"><circle cx="3" cy="3" r="3"/></g>
<g transform="translate(192,288) scale(4.12)"><circle cx="3" cy="3" r="3"/></g>
<g transform="translate(216,288) scale(4.12)"><circle cx="3" cy="3" r="3"/></g>
<g transform="translate(264,288) scale(4.12)"><circle cx="3" cy="3" r="3"/></g>
<g transform="translate(288,288) scale(4.12)"><circle cx="3" cy="3" r="3"/></g>
<g transform="translate(408,288) scale(4.12)"><circle cx="3" cy="3" r="3"/></g>
<g transform="translate(480,288) scale(4.12)"><circle cx="3" cy="3" r="3"/></g>
<g transform="translate(528,288) scale(4.12)"><circle cx="3" cy="3" r="3"/></g>
<g transform="translate(576,288) scale(4.12)"><circle cx="3" cy="3" r="3"/></g>
<g transform="translate(600,288) scale(4.12)"><circle cx="3" cy="3" r="3"/></g>
<g transform="translate(72,312) scale(4.12)"><circle cx="3" cy="3" r="3"/></g>
<g transform="translate(96,312) scale(4.12)"><circle cx="3" cy="3" r="3"/></g>
<g transform="translate(144,312) scale(4.12)"><circle cx="3" cy="3" r="3"/></g>
<g transform="translate(216,312) scale(4.12)"><circle cx="3" cy="3" r="3"/></g>
<g transform="translate(264,312) scale(4.12)"><circle cx="3" cy="3" r="3"/></g>
<g transform="translate(288,312) scale(4.12)"><circle cx="3" cy="3" r="3"/></g>
<g transform="translate(384,312) scale(4.12)"><circle cx="3" cy="3" r="3"/></g>
<g transform="translate(408,312) scale(4.12)"><circle cx="3" cy="3" r="3"/></g>
<g transform="translate(432,312) scale(4.12)"><circle cx="3" cy="3" r="3"/></g>
<g transform="translate(480,312) scale(4.12)"><circle cx="3" cy="3" r="3"/></g>
<g transform="translate(504,312) scale(4.12)"><circle cx="3" cy="3" r="3"/></g>
<g transform="translate(552,312) scale(4.12)"><circle cx="3" cy="3" r="3"/></g>
<g transform="translate(576,312) scale(4.12)"><circle cx="3" cy="3" r="3"/></g>
<g transform="translate(624,312) scale(4.12)"><circle cx="3" cy="3" r="3"/></g>
<g transform="translate(648,312) scale(4.12)"><circle cx="3" cy="3" r="3"/></g>
<g transform="translate(696,312) scale(4.12)"><circle cx="3" cy="3" r="3"/></g>
<g transform="translate(48,336) scale(4.12)"><circle cx="3" cy="3" r="3"/></g>
<g transform="translate(144,336) scale(4.12)"><circle cx="3" cy="3" r="3"/></g>
<g transform="translate(192,336) scale(4.12)"><circle cx="3" cy="3" r="3"/></g>
<g transform="translate(384,336) scale(4.12)"><circle cx="3" cy="3" r="3"/></g>
<g transform="translate(408,336) scale(4.12)"><circle cx="3" cy="3" r="3"/></g>
<g transform="translate(456,336) scale(4.12)"><circle cx="3" cy="3" r="3"/></g>
<g transform="translate(600,336) scale(4.12)"><circle cx="3" cy="3" r="3"/></g>
<g transform="translate(648,336) scale(4.12)"><circle cx="3" cy="3" r="3"/></g>
<g transform="translate(672,336) scale(4.12)"><circle cx="3" cy="3" r="3"/></g>
<g transform="translate(72,360) scale(4.12)"><circle cx="3" cy="3" r="3"/></g>
<g transform="translate(120,360) scale(4.12)"><circle cx="3" cy="3" r="3"/></g>
<g transform="translate(384,360) scale(4.12)"><circle cx="3" cy="3" r="3"/></g>
<g transform="translate(432,360) scale(4.12)"><circle cx="3" cy="3" r="3"/></g>
<g transform="translate(504,360) scale(4.12)"><circle cx="3" cy="3" r="3"/></g>
<g transform="translate(528,360) scale(4.12)"><circle cx="3" cy="3" r="3"/></g>
<g transform="translate(552,360) scale(4.12)"><circle cx="3" cy="3" r="3"/></g>
<g transform="translate(576,360) scale(4.12)"><circle cx="3" cy="3" r="3"/></g>
<g transform="translate(600,360) scale(4.12)"><circle cx="3" cy="3" r="3"/></g>
<g transform="translate(624,360) scale(4.12)"><circle cx="3" cy="3" r="3"/></g>
<g transform="translate(720,360) scale(4.12)"><circle cx="3" cy="3" r="3"/></g>
<g transform="translate(48,384) scale(4.12)"><circle cx="3" cy="3" r="3"/></g>
<g transform="translate(96,384) scale(4.12)"><circle cx="3" cy="3" r="3"/></g>
<g transform="translate(168,384) scale(4.12)"><circle cx="3" cy="3" r="3"/></g>
<g transform="translate(192,384) scale(4.12)"><circle cx="3" cy="3" r="3"/></g>
<g transform="translate(264,384) scale(4.12)"><circle cx="3" cy="3" r="3"/></g>
<g transform="translate(288,384) scale(4.12)"><circle cx="3" cy="3" r="3"/></g>
<g transform="translate(312,384) scale(4.12)"><circle cx="3" cy="3" r="3"/></g>
<g transform="translate(336,384) scale(4.12)"><circle cx="3" cy="3" r="3"/></g>
<g transform="translate(360,384) scale(4.12)"><circle cx="3" cy="3" r="3"/></g>
<g transform="translate(384,384) scale(4.12)"><circle cx="3" cy="3" r="3"/></g>
<g transform="translate(408,384) scale(4.12)"><circle cx="3" cy="3" r="3"/></g>
<g transform="translate(432,384) scale(4.12)"><circle cx="3" cy="3" r="3"/></g>
<g transform="translate(480,384) scale(4.12)"><circle cx="3" cy="3" r="3"/></g>
<g transform="translate(552,384) scale(4.12)"><circle cx="3" cy="3" r="3"/></g>
<g transform="translate(624,384) scale(4.12)"><circle cx="3" cy="3" r="3"/></g>
<g transform="translate(648,384) scale(4.12)"><circle cx="3" cy="3" r="3"/></g>
<g transform="translate(672,384) scale(4.12)"><circle cx="3" cy="3" r="3"/></g>
<g transform="translate(48,408) scale(4.12)"><circle cx="3" cy="3" r="3"/></g>
<g transform="translate(120,408) scale(4.12)"><circle cx="3" cy="3" r="3"/></g>
<g transform="translate(240,408) scale(4.12)"><circle cx="3" cy="3" r="3"/></g>
<g transform="translate(288,408) scale(4.12)"><circle cx="3" cy="3" r="3"/></g>
<g transform="translate(312,408) scale(4.12)"><circle cx="3" cy="3" r="3"/></g>
<g transform="translate(336,408) scale(4.12)"><circle cx="3" cy="3" r="3"/></g>
<g transform="translate(384,408) scale(4.12)"><circle cx="3" cy="3" r="3"/></g>
<g transform="translate(408,408) scale(4.12)"><circle cx="3" cy="3" r="3"/></g>
<g transform="translate(480,408) scale(4.12)"><circle cx="3" cy="3" r="3"/></g>
<g transform="translate(504,408) scale(4.12)"><circle cx="3" cy="3" r="3"/></g>
<g transform="translate(528,408) scale(4.12)"><circle cx="3" cy="3" r="3"/></g>
<g transform="translate(624,408) scale(4.12)"><circle cx="3" cy="3" r="3"/></g>
<g transform="translate(696,408) scale(4.12)"><circle cx="3" cy="3" r="3"/></g>
<g transform="translate(48,432) scale(4.12)"><circle cx="3" cy="3" r="3"/></g>
<g transform="translate(96,432) scale(4.12)"><circle cx="3" cy="3" r="3"/></g>
<g transform="translate(168,432) scale(4.12)"><circle cx="3" cy="3" r="3"/></g>
<g transform="translate(192,432) scale(4.12)"><circle cx="3" cy="3" r="3"/></g>
<g transform="translate(216,432) scale(4.12)"><circle cx="3" cy="3" r="3"/></g>
<g transform="translate(312,432) scale(4.12)"><circle cx="3" cy="3" r="3"/></g>
<g transform="translate(336,432) scale(4.12)"><circle cx="3" cy="3" r="3"/></g>
<g transform="translate(456,432) scale(4.12)"><circle cx="3" cy="3" r="3"/></g>
<g transform="translate(480,432) scale(4.12)"><circle cx="3" cy="3" r="3"/></g>
<g transform="translate(504,432) scale(4.12)"><circle cx="3" cy="3" r="3"/></g>
<g transform="translate(600,432) scale(4.12)"><circle cx="3" cy="3" r="3"/></g>
<g transform="translate(648,432) scale(4.12)"><circle cx="3" cy="3" r="3"/></g>
<g transform="translate(672,432) scale(4.12)"><circle cx="3" cy="3" r="3"/></g>
<g transform="translate(48,456) scale(4.12)"><circle cx="3" cy="3" r="3"/></g>
<g transform="translate(72,456) scale(4.12)"><circle cx="3" cy="3" r="3"/></g>
<g transform="translate(96,456) scale(4.12)"><circle cx="3" cy="3" r="3"/></g>
<g transform="translate(240,456) scale(4.12)"><circle cx="3" cy="3" r="3"/></g>
<g transform="translate(264,456) scale(4.12)"><circle cx="3" cy="3" r="3"/></g>
<g transform="translate(336,456) scale(4.12)"><circle cx="3" cy="3" r="3"/></g>
<g transform="translate(360,456) scale(4.12)"><circle cx="3" cy="3" r="3"/></g>
<g transform="translate(432,456) scale(4.12)"><circle cx="3" cy="3" r="3"/></g>
<g transform="translate(456,456) scale(4.12)"><circle cx="3" cy="3" r="3"/></g>
<g transform="translate(480,456) scale(4.12)"><circle cx="3" cy="3" r="3"/></g>
<g transform="translate(504,456) scale(4.12)"><circle cx="3" cy="3" r="3"/></g>
<g transform="translate(576,456) scale(4.12)"><circle cx="3" cy="3" r="3"/></g>
<g transform="translate(600,456) scale(4.12)"><circle cx="3" cy="3" r="3"/></g>
<g transform="translate(624,456) scale(4.12)"><circle cx="3" cy="3" r="3"/></g>
<g transform="translate(672,456) scale(4.12)"><circle cx="3" cy="3" r="3"/></g>
<g transform="translate(720,456) scale(4.12)"><circle cx="3" cy="3" r="3"/></g>
<g transform="translate(48,480) scale(4.12)"><circle cx="3" cy="3" r="3"/></g>
<g transform="translate(144,480) scale(4.12)"><circle cx="3" cy="3" r="3"/></g>
<g transform="translate(168,480) scale(4.12)"><circle cx="3" cy="3" r="3"/></g>
<g transform="translate(192,480) scale(4.12)"><circle cx="3" cy="3" r="3"/></g>
<g transform="translate(240,480) scale(4.12)"><circle cx="3" cy="3" r="3"/></g>
<g transform="translate(288,480) scale(4.12)"><circle cx="3" cy="3" r="3"/></g>
<g transform="translate(312,480) scale(4.12)"><circle cx="3" cy="3" r="3"/></g>
<g transform="translate(336,480) scale(4.12)"><circle cx="3" cy="3" r="3"/></g>
<g transform="translate(360,480) scale(4.12)"><circle cx="3" cy="3" r="3"/></g>
<g transform="translate(384,480) scale(4.12)"><circle cx="3" cy="3" r="3"/></g>
<g transform="translate(408,480) scale(4.12)"><circle cx="3" cy="3" r="3"/></g>
<g transform="translate(432,480) scale(4.12)"><circle cx="3" cy="3" r="3"/></g>
<g transform="translate(456,480) scale(4.12)"><circle cx="3" cy="3" r="3"/></g>
<g transform="translate(528,480) scale(4.12)"><circle cx="3" cy="3" r="3"/></g>
<g transform="translate(552,480) scale(4.12)"><circle cx="3" cy="3" r="3"/></g>
<g transform="translate(624,480) scale(4.12)"><circle cx="3" cy="3" r="3"/></g>
<g transform="translate(672,480) scale(4.12)"><circle cx="3" cy="3" r="3"/></g>
<g transform="translate(48,504) scale(4.12)"><circle cx="3" cy="3" r="3"/></g>
<g transform="translate(96,504) scale(4.12)"><circle cx="3" cy="3" r="3"/></g>
<g transform="translate(144,504) scale(4.12)"><circle cx="3" cy="3" r="3"/></g>
<g transform="translate(240,504) scale(4.12)"><circle cx="3" cy="3" r="3"/></g>
<g transform="translate(360,504) scale(4.12)"><circle cx="3" cy="3" r="3"/></g>
<g transform="translate(432,504) scale(4.12)"><circle cx="3" cy="3" r="3"/></g>
<g transform="translate(528,504) scale(4.12)"><circle cx="3" cy="3" r="3"/></g>
<g transform="translate(552,504) scale(4.12)"><circle cx="3" cy="3" r="3"/></g>
<g transform="translate(624,504) scale(4.12)"><circle cx="3" cy="3" r="3"/></g>
<g transform="translate(696,504) scale(4.12)"><circle cx="3" cy="3" r="3"/></g>
<g transform="translate(48,528) scale(4.12)"><circle cx="3" cy="3" r="3"/></g>
<g transform="translate(96,528) scale(4.12)"><circle cx="3" cy="3" r="3"/></g>
<g transform="translate(120,528) scale(4.12)"><circle cx="3" cy="3" r="3"/></g>
<g transform="translate(144,528) scale(4.12)"><circle cx="3" cy="3" r="3"/></g>
<g transform="translate(192,528) scale(4.12)"><circle cx="3" cy="3" r="3"/></g>
<g transform="translate(312,528) scale(4.12)"><circle cx="3" cy="3" r="3"/></g>
<g transform="translate(336,528) scale(4.12)"><circle cx="3" cy="3" r="3"/></g>
<g transform="translate(384,528) scale(4.12)"><circle cx="3" cy="3" r="3"/></g>
<g transform="translate(456,528) scale(4.12)"><circle cx="3" cy="3" r="3"/></g>
<g transform="translate(528,528) scale(4.12)"><circle cx="3" cy="3" r="3"/></g>
<g transform="translate(552,528) scale(4.12)"><circle cx="3" cy="3" r="3"/></g>
<g transform="translate(576,528) scale(4.12)"><circle cx="3" cy="3" r="3"/></g>
<g transform="translate(600,528) scale(4.12)"><circle cx="3" cy="3" r="3"/></g>
<g transform="translate(624,528) scale(4.12)"><circle cx="3" cy="3" r="3"/></g>
<g transform="translate(672,528) scale(4.12)"><circle cx="3" cy="3" r="3"/></g>
<g transform="translate(696,528) scale(4.12)"><circle cx="3" cy="3" r="3"/></g>
<g transform="translate(720,528) scale(4.12)"><circle cx="3" cy="3" r="3"/></g>
<g transform="translate(240,552) scale(4.12)"><circle cx="3" cy="3" r="3"/></g>
<g transform="translate(312,552) scale(4.12)"><circle cx="3" cy="3" r="3"/></g>
<g transform="translate(336,552) scale(4.12)"><circle cx="3" cy="3" r="3"/></g>
<g transform="translate(480,552) scale(4.12)"><circle cx="3" cy="3" r="3"/></g>
<g transform="translate(528,552) scale(4.12)"><circle cx="3" cy="3" r="3"/></g>
<g transform="translate(624,552) scale(4.12)"><circle cx="3" cy="3" r="3"/></g>
<g transform="translate(648,552) scale(4.12)"><circle cx="3" cy="3" r="3"/></g>
<g transform="translate(672,552) scale(4.12)"><circle cx="3" cy="3" r="3"/></g>
<g transform="translate(696,552) scale(4.12)"><circle cx="3" cy="3" r="3"/></g>
<g transform="translate(720,552) scale(4.12)"><circle cx="3" cy="3" r="3"/></g>
<g transform="translate(336,576) scale(4.12)"><circle cx="3" cy="3" r="3"/></g>
<g transform="translate(408,576) scale(4.12)"><circle cx="3" cy="3" r="3"/></g>
<g transform="translate(456,576) scale(4.12)"><circle cx="3" cy="3" r="3"/></g>
<g transform="translate(504,576) scale(4.12)"><circle cx="3" cy="3" r="3"/></g>
<g transform="translate(528,576) scale(4.12)"><circle cx="3" cy="3" r="3"/></g>
<g transform="translate(576,576) scale(4.12)"><circle cx="3" cy="3" r="3"/></g>
<g transform="translate(624,576) scale(4.12)"><circle cx="3" cy="3" r="3"/></g>
<g transform="translate(648,576) scale(4.12)"><circle cx="3" cy="3" r="3"/></g>
<g transform="translate(672,576) scale(4.12)"><circle cx="3" cy="3" r="3"/></g>
<g transform="translate(240,600) scale(4.12)"><circle cx="3" cy="3" r="3"/></g>
<g transform="translate(264,600) scale(4.12)"><circle cx="3" cy="3" r="3"/></g>
<g transform="translate(288,600) scale(4.12)"><circle cx="3" cy="3" r="3"/></g>
<g transform="translate(384,600) scale(4.12)"><circle cx="3" cy="3" r="3"/></g>
<g transform="translate(408,600) scale(4.12)"><circle cx="3" cy="3" r="3"/></g>
<g transform="translate(432,600) scale(4.12)"><circle cx="3" cy="3" r="3"/></g>
<g transform="translate(480,600) scale(4.12)"><circle cx="3" cy="3" r="3"/></g>
<g transform="translate(504,600) scale(4.12)"><circle cx="3" cy="3" r="3"/></g>
<g transform="translate(528,600) scale(4.12)"><circle cx="3" cy="3" r="3"/></g>
<g transform="translate(624,600) scale(4.12)"><circle cx="3" cy="3" r="3"/></g>
<g transform="translate(696,600) scale(4.12)"><circle cx="3" cy="3" r="3"/></g>
<g transform="translate(720,600) scale(4.12)"><circle cx="3" cy="3" r="3"/></g>
<g transform="translate(240,624) scale(4.12)"><circle cx="3" cy="3" r="3"/></g>
<g transform="translate(312,624) scale(4.12)"><circle cx="3" cy="3" r="3"/></g>
<g transform="translate(336,624) scale(4.12)"><circle cx="3" cy="3" r="3"/></g>
<g transform="translate(408,624) scale(4.12)"><circle cx="3" cy="3" r="3"/></g>
<g transform="translate(456,624) scale(4.12)"><circle cx="3" cy="3" r="3"/></g>
<g transform="translate(528,624) scale(4.12)"><circle cx="3" cy="3" r="3"/></g>
<g transform="translate(552,624) scale(4.12)"><circle cx="3" cy="3" r="3"/></g>
<g transform="translate(576,624) scale(4.12)"><circle cx="3" cy="3" r="3"/></g>
<g transform="translate(600,624) scale(4.12)"><circle cx="3" cy="3" r="3"/></g>
<g transform="translate(624,624) scale(4.12)"><circle cx="3" cy="3" r="3"/></g>
<g transform="translate(672,624) scale(4.12)"><circle cx="3" cy="3" r="3"/></g>
<g transform="translate(696,624) scale(4.12)"><circle cx="3" cy="3" r="3"/></g>
<g transform="translate(240,648) scale(4.12)"><circle cx="3" cy="3" r="3"/></g>
<g transform="translate(288,648) scale(4.12)"><circle cx="3" cy="3" r="3"/></g>
<g transform="translate(312,648) scale(4.12)"><circle cx="3" cy="3" r="3"/></g>
<g transform="translate(360,648) scale(4.12)"><circle cx="3" cy="3" r="3"/></g>
<g transform="translate(384,648) scale(4.12)"><circle cx="3" cy="3" r="3"/></g>
<g transform="translate(432,648) scale(4.12)"><circle cx="3" cy="3" r="3"/></g>
<g transform="translate(480,648) scale(4.12)"><circle cx="3" cy="3" r="3"/></g>
<g transform="translate(600,648) scale(4.12)"><circle cx="3" cy="3" r="3"/></g>
<g transform="translate(648,648) scale(4.12)"><circle cx="3" cy="3" r="3"/></g>
<g transform="translate(672,648) scale(4.12)"><circle cx="3" cy="3" r="3"/></g>
<g transform="translate(696,648) scale(4.12)"><circle cx="3" cy="3" r="3"/></g>
<g transform="translate(720,648) scale(4.12)"><circle cx="3" cy="3" r="3"/></g>
<g transform="translate(240,672) scale(4.12)"><circle cx="3" cy="3" r="3"/></g>
<g transform="translate(264,672) scale(4.12)"><circle cx="3" cy="3" r="3"/></g>
<g transform="translate(288,672) scale(4.12)"><circle cx="3" cy="3" r="3"/></g>
<g transform="translate(312,672) scale(4.12)"><circle cx="3" cy="3" r="3"/></g>
<g transform="translate(336,672) scale(4.12)"><circle cx="3" cy="3" r="3"/></g>
<g transform="translate(408,672) scale(4.12)"><circle cx="3" cy="3" r="3"/></g>
<g transform="translate(432,672) scale(4.12)"><circle cx="3" cy="3" r="3"/></g>
<g transform="translate(504,672) scale(4.12)"><circle cx="3" cy="3" r="3"/></g>
<g transform="translate(528,672) scale(4.12)"><circle cx="3" cy="3" r="3"/></g>
<g transform="translate(576,672) scale(4.12)"><circle cx="3" cy="3" r="3"/></g>
<g transform="translate(600,672) scale(4.12)"><circle cx="3" cy="3" r="3"/></g>
<g transform="translate(624,672) scale(4.12)"><circle cx="3" cy="3" r="3"/></g>
<g transform="translate(648,672) scale(4.12)"><circle cx="3" cy="3" r="3"/></g>
<g transform="translate(672,672) scale(4.12)"><circle cx="3" cy="3" r="3"/></g>
<g transform="translate(696,672) scale(4.12)"><circle cx="3" cy="3" r="3"/></g>
<g transform="translate(264,696) scale(4.12)"><circle cx="3" cy="3" r="3"/></g>
<g transform="translate(288,696) scale(4.12)"><circle cx="3" cy="3" r="3"/></g>
<g transform="translate(312,696) scale(4.12)"><circle cx="3" cy="3" r="3"/></g>
<g transform="translate(336,696) scale(4.12)"><circle cx="3" cy="3" r="3"/></g>
<g transform="translate(360,696) scale(4.12)"><circle cx="3" cy="3" r="3"/></g>
<g transform="translate(384,696) scale(4.12)"><circle cx="3" cy="3" r="3"/></g>
<g transform="translate(408,696) scale(4.12)"><circle cx="3" cy="3" r="3"/></g>
<g transform="translate(432,696) scale(4.12)"><circle cx="3" cy="3" r="3"/></g>
<g transform="translate(528,696) scale(4.12)"><circle cx="3" cy="3" r="3"/></g>
<g transform="translate(552,696) scale(4.12)"><circle cx="3" cy="3" r="3"/></g>
<g transform="translate(600,696) scale(4.12)"><circle cx="3" cy="3" r="3"/></g>
<g transform="translate(624,696) scale(4.12)"><circle cx="3" cy="3" r="3"/></g>
<g transform="translate(648,696) scale(4.12)"><circle cx="3" cy="3" r="3"/></g>
<g transform="translate(696,696) scale(4.12)"><circle cx="3" cy="3" r="3"/></g>
<g transform="translate(240,720) scale(4.12)"><circle cx="3" cy="3" r="3"/></g>
<g transform="translate(288,720) scale(4.12)"><circle cx="3" cy="3" r="3"/></g>
<g transform="translate(360,720) scale(4.12)"><circle cx="3" cy="3" r="3"/></g>
<g transform="translate(384,720) scale(4.12)"><circle cx="3" cy="3" r="3"/></g>
<g transform="translate(408,720) scale(4.12)"><circle cx="3" cy="3" r="3"/></g>
<g transform="translate(456,720) scale(4.12)"><circle cx="3" cy="3" r="3"/></g>
<g transform="translate(504,720) scale(4.12)"><circle cx="3" cy="3" r="3"/></g>
<g transform="translate(552,720) scale(4.12)"><circle cx="3" cy="3" r="3"/></g>
<g transform="translate(624,720) scale(4.12)"><circle cx="3" cy="3" r="3"/></g>
<g transform="translate(672,720) scale(4.12)"><circle cx="3" cy="3" r="3"/></g>
<g transform="translate(48,48)"><g transform="scale(12)"><path d="M4.5,14h5.1C12,14,14,12,14,9.6V4.5C14,2,12,0,9.5,0H4.4C2,0,0,2,0,4.4v5.1C0,12,2,14,4.5,14z M12,4.8v4.4 c0,1.5-1.3,2.8-2.8,2.8H4.8C3.2,12,2,10.8,2,9.2V4.8C2,3.3,3.3,2,4.8,2h4.4C10.8,2,12,3.2,12,4.8z"/></g></g>
<g transform="translate(576,48)"><g transform="scale(12)"><path d="M4.5,14h5.1C12,14,14,12,14,9.6V4.5C14,2,12,0,9.5,0H4.4C2,0,0,2,0,4.4v5.1C0,12,2,14,4.5,14z M12,4.8v4.4 c0,1.5-1.3,2.8-2.8,2.8H4.8C3.2,12,2,10.8,2,9.2V4.8C2,3.3,3.3,2,4.8,2h4.4C10.8,2,12,3.2,12,4.8z"/></g></g>
<g transform="translate(48,576)"><g transform="scale(12)"><path d="M4.5,14h5.1C12,14,14,12,14,9.6V4.5C14,2,12,0,9.5,0H4.4C2,0,0,2,0,4.4v5.1C0,12,2,14,4.5,14z M12,4.8v4.4 c0,1.5-1.3,2.8-2.8,2.8H4.8C3.2,12,2,10.8,2,9.2V4.8C2,3.3,3.3,2,4.8,2h4.4C10.8,2,12,3.2,12,4.8z"/></g></g>
<g transform="translate(96,96)"><g transform="scale(12)"><path d="M6,1.7v2.7C6,5.2,5.2,6,4.3,6H1.7C0.7,6,0,5.3,0,4.3V1.7C0,0.8,0.8,0,1.7,0h2.7C5.3,0,6,0.7,6,1.7z"/></g></g>
<g transform="translate(624,96)"><g transform="scale(12)"><path d="M6,1.7v2.7C6,5.2,5.2,6,4.3,6H1.7C0.7,6,0,5.3,0,4.3V1.7C0,0.8,0.8,0,1.7,0h2.7C5.3,0,6,0.7,6,1.7z"/></g></g>
<g transform="translate(96,624)"><g transform="scale(12)"><path d="M6,1.7v2.7C6,5.2,5.2,6,4.3,6H1.7C0.7,6,0,5.3,0,4.3V1.7C0,0.8,0.8,0,1.7,0h2.7C5.3,0,6,0.7,6,1.7z"/></g></g>
</g></svg>
